<?xml version="1.0" encoding="UTF-8"?>
<svg xmlns="http://www.w3.org/2000/svg" xmlns:xlink="http://www.w3.org/1999/xlink" viewBox="0 0 2000 2000">
  <defs>
    <style>
      .cls-1 {
        fill: #1e6cb6;
      }

      .cls-2 {
        stroke: #9b9b9b;
        stroke-width: 4px;
      }

      .cls-2, .cls-3, .cls-4, .cls-5, .cls-6, .cls-7, .cls-8, .cls-9, .cls-10 {
        stroke-linejoin: round;
      }

      .cls-2, .cls-3, .cls-4, .cls-5, .cls-6, .cls-7, .cls-9, .cls-10 {
        stroke-linecap: round;
      }

      .cls-2, .cls-11, .cls-12, .cls-13, .cls-14, .cls-7, .cls-15, .cls-8 {
        fill: none;
      }

      .cls-3, .cls-4, .cls-5, .cls-13, .cls-6, .cls-7, .cls-9, .cls-16, .cls-10 {
        stroke-width: 9px;
      }

      .cls-3, .cls-16 {
        fill: #7cbc44;
        stroke: #005e1f;
      }

      .cls-17 {
        fill: url(#_Безымянный_градиент_197);
        opacity: .8;
      }

      .cls-18, .cls-19, .cls-20, .cls-9 {
        fill: #fff;
      }

      .cls-21 {
        fill: url(#_Безымянный_градиент_47);
      }

      .cls-22, .cls-23, .cls-24 {
        opacity: .4;
      }

      .cls-22, .cls-25 {
        fill: #001f38;
      }

      .cls-26, .cls-6 {
        fill: #afd6db;
      }

      .cls-19, .cls-8, .cls-27 {
        opacity: .3;
      }

      .cls-4 {
        fill: #3e8dff;
      }

      .cls-4, .cls-5, .cls-13, .cls-6, .cls-7, .cls-9, .cls-10 {
        stroke: #001f38;
      }

      .cls-28, .cls-25, .cls-20 {
        opacity: .2;
      }

      .cls-28, .cls-29, .cls-24 {
        fill: #232323;
      }

      .cls-11 {
        stroke: #2e77bf;
      }

      .cls-11, .cls-12, .cls-13, .cls-15, .cls-16 {
        stroke-miterlimit: 10;
      }

      .cls-11, .cls-12, .cls-15 {
        stroke-width: 8px;
      }

      .cls-30 {
        fill: #e6e6e6;
      }

      .cls-12 {
        stroke: #71af35;
      }

      .cls-5 {
        fill: #beb0d1;
      }

      .cls-31 {
        clip-path: url(#clippath);
      }

      .cls-29 {
        opacity: .35;
      }

      .cls-15 {
        stroke: #7f7e7c;
      }

      .cls-32, .cls-10 {
        fill: #378ffd;
      }

      .cls-8 {
        stroke: #fff;
        stroke-linecap: square;
        stroke-width: 15px;
      }
    </style>
    <clipPath id="clippath">
      <circle class="cls-14" cx="969" cy="1385" r="525"/>
    </clipPath>
    <linearGradient id="_Безымянный_градиент_47" data-name="Безымянный градиент 47" x1="999.91" y1="193.38" x2="1360.81" y2="631.35" gradientUnits="userSpaceOnUse">
      <stop offset="0" stop-color="#232323"/>
      <stop offset="1" stop-color="#131516"/>
    </linearGradient>
    <linearGradient id="_Безымянный_градиент_197" data-name="Безымянный градиент 197" x1="1088.92" y1="461.13" x2="1428.78" y2="1092.81" gradientUnits="userSpaceOnUse">
      <stop offset="0" stop-color="#ffb66a" stop-opacity="0"/>
      <stop offset=".26" stop-color="#fbd971" stop-opacity=".34"/>
      <stop offset=".52" stop-color="#f8ff79" stop-opacity=".7"/>
      <stop offset=".91" stop-color="#fcffd4"/>
    </linearGradient>
  </defs>
  <g id="_Земля" data-name="Земля">
    <circle class="cls-1" cx="969" cy="1385" r="525"/>
    <g class="cls-31">
      <path class="cls-3" d="M721,1677c-4.62-7.37-14.46-12.98-22-12-15.29,1.99-26.32,31.79-24,56,2.81,29.29,24.9,47.73,36,57,9.1,7.6,37.67,31.45,75,27,31.88-3.8,59.76-27.01,57-37-1.72-6.23-15.88-9.24-43-15-14.16-3.01-20.26-3.22-25-9-6.49-7.92-.99-14.78-8-26-6.36-10.18-17.39-14.94-20-16-9.96-4.03-14.19-1.27-19-6-5.53-5.44-2.12-11.23-7-19Z"/>
      <path class="cls-3" d="M1510,1302c-8.42-2.33-25.62,5.45-60,21-9.96,4.5-15.6,7.59-29,13-20.66,8.34-22.39,7.12-26,11-12.13,13.07,2.28,32.52-6,54-6.31,16.36-22.88,11.18-36,31-3.2,4.83-6.49,11.33-10,27-5.44,24.25-4.74,40.7-5,69-.45,47.89-2.79,37.41-3,81-.1,20.58,.4,27.88-3,40-5.92,21.08-14.58,24.47-23,45-10.28,25.08-8.78,47.89-8,58,1.2,15.56,4.08,53,23,62,29,13.8,82.64-45.37,95-59,25.59-28.23,75.97-92.52,102-218,22.46-108.26,19.43-226.6-11-235Z"/>
      <path class="cls-16" d="M946,1088c-3.05-2.92-7.66-6.35-13-6-13.59,.89-12.86,25-34,41-13.51,10.22-21.79,6.42-38,21-6,5.39-13.53,12.33-12,19,1.74,7.58,14.57,12.08,25,12,17.86-.14,19.98-13.66,43-21,19.84-6.33,29.19,.23,38-9,7.85-8.22,7.23-20.55,7-25-.91-17.98-13.03-29.36-16-32Z"/>
      <path class="cls-16" d="M933,1007c-8.95-1.4-20.97,2.1-25,11-3.93,8.69,1.77,18.06,6,25,1.64,2.7,16.25,26.13,30,22,9.55-2.87,13.74-17.53,13-28-.9-12.77-9.74-27.77-24-30Z"/>
      <path class="cls-3" d="M431.5,1308.5c4.05,12.66,20.14,62.95,50,67,8.98,1.22,17.26-2.01,71-37,39.2-25.53,49.26-33.23,57-29,12.17,6.64,9.43,37.72,4,58-12.36,46.12-43.1,52.94-44,88-.35,13.82,5.1,25.88,16,50,7.56,16.72,15.97,35.33,33,53,23.26,24.14,34.97,17.87,59,43,20.53,21.48,14.35,28.53,31,42,24.34,19.69,44.53,10.24,77,23,24.37,9.58,27.4,20.56,65,56,42.36,39.93,69.21,65.24,108,80,45.36,17.26,106.15,19.76,119-4,6.67-12.33-.97-29.13-10-49-12.63-27.8-27.96-43.87-44-62-45.62-51.56-68.43-77.35-72-104-.45-3.33-5.69-46.85,20-71,20.88-19.64,45.13-10.42,69-36,12.7-13.61,17.37-28.59,19-34,4.79-15.97,3.49-28.37-2-61-6.34-37.72-12.22-66.48-22-105-7.35-28.93-10.16-36.82-17-46-8.72-11.69-21.6-19.29-47-34-30.16-17.47-45.5-26.18-58-25-14.26,1.35-15.4,8.45-48,28-29.54,17.71-44.66,26.5-62,23-12.48-2.52-27.52-11.56-31-25-6.58-25.44,31.8-52.99,36-56,21.52-15.45,58.51-30.09,66-33,7.7-2.99,18.12-6.76,24-17,4.37-7.6,6.51-19.24,2-29-6.74-14.58-22.16-11.62-32-26-6.91-10.1-3.7-17.99-5-36-.5-6.99-3.81-44.9-23-66-19.99-21.97-47.68,.82-76-20-19.82-14.57-14.49-29.98-29-42-33.48-27.73-118.38,7.55-173,53-54.16,45.07-74.94,97.15-102,165-25.45,63.79-54.28,138.99-29,218Z"/>
    </g>
    <path class="cls-22" d="M1150.5,1786.5c-289.95,0-525-235.05-525-525,0-138.98,54.01-265.34,142.17-359.25-192.95,77.62-329.17,266.52-329.17,487.25,0,289.95,235.05,525,525,525,150.97,0,287.05-63.73,382.83-165.75-60.51,24.34-126.6,37.75-195.83,37.75Z"/>
    <circle class="cls-7" cx="969" cy="1385" r="525"/>
  </g>
  <g id="_Космонавт" data-name="Космонавт">
    <g id="_Слой_8" data-name="Слой 8">
      <path class="cls-18" d="M1118,947c4.61,5.31,12.1,12.73,23,19,19.91,11.45,38.71,11.91,46,12,23.54,.29,73.22-7.8,83-41,9.19-31.19-23.11-63.24-27-67-9.65-9.33-19.7-14.8-27-18-.29-7.59-.69-19.47-1-34-2.14-100.37,4.39-133.6,2-156-13.5-126.57-346.07-229.11-440-157-.06,.04-.78,.6-1.75,1.36,0,0-20.57,16.13-39.25,37.64-12.8,14.73-35.49,46.31-56,92-5.89,1.47-13.18,3.89-21,8-11.57,6.07-19.75,13.43-25,19-2.14,1.84-4.7,4.45-7,8-4.61,7.1-5.7,14.12-6,18-8.72,38.69-14.61,68.19-17,82-.54,3.12-1.55,9.31,0,17,1.75,8.65,5.91,15.07,9,19-2.39,11.19-5.55,27.74-8,48-5.17,42.77-7.65,65.43,2,91,4.2,11.12,11.52,29.75,31,43,20.77,14.13,42.84,13.61,51,13,7.8,20.45,17.61,35.35,25,45,12.49,16.3,23.21,30.3,42,35,12.24,3.06,23.18,.99,30-1,2.95,4.16,7.34,10.12,13,17,18.16,22.07,30.75,37.37,51,46,7.91,3.37,24.98,10.65,44,5,17.43-5.18,27.1-18.43,36-31,4.92-6.95,17.69-26.37,25-63,7.69-38.57,3.8-70.6-2.5-89.5-2.5-7.5-10-26-14-30,5,5,25.59,24.82,29.5,28.5,11.26,10.6,19.89,13.58,41,28,3.99,2.73,11.12,3.94,14,10,2.29,4.83,.06,7.55,2,12,3.83,8.78,17.94,10.5,22,11,14.86,1.82,26.65-4.19,32-7,4.68-2.46,30.11-15.84,34-42,.7-4.72,2.43-16.38-4-26-2.25-3.37-5.66-6.41-6.42-7.09-4.2-3.83-10.78-8.49-13.88-9.53-.16-.05-.72-.23-.7-.38,.05-.36,3.64-.44,6,0,4.94,.92,6.78,4.56,11,8,2.55,2.07,6.62,4.6,13,6Z"/>
      <g id="_Слой_13" data-name="Слой 13">
        <path class="cls-28" d="M678,638c13.82,10.9,30.11,22.25,49,33,9.29,5.28,18.33,9.92,27,14,10.43-16.68,22.04-33.75,35-51,3.33-4.43,6.66-8.76,10-13-13.97,7.57-26.41,11.16-35,13-14.02,3.01-31.89,6.84-51-1-9.88-4.05-16.81-9.87-21-14-4.67,6.33-9.33,12.67-14,19Z"/>
        <path class="cls-28" d="M619,715c.41,11.77,9.2,26.58,12,31,12.63,19.95,30.68,24.71,62,18,1,16-.08,22.42,3,32,3.06,9.51,4.05,10.98,6,12-3.86,9.92-6.34,27.83-10,48-4.23,23.3-5.46,38.09-6,87-.14,12.41-2,35,2,59-12,1-15.31-1.09-25-4-38.36-11.52-54.95-50.52-57-56-7-32-2.76-42.12-2-58,2.19-45.98,6.55-64.53,7-68,.02-.18,1.97-6.19,2-7,.26-7.02-2.85-8.39-4-10-2.82-3.94-3.44-14.24-7-29,.23-8.49,3-21,11-43,1.4-3.85,3.34-9.81,6-12Z"/>
      </g>
      <path class="cls-7" d="M1118,947c4.61,5.31,12.1,12.73,23,19,19.91,11.45,38.71,11.91,46,12,23.54,.29,73.22-7.8,83-41,9.19-31.19-23.11-63.24-27-67-9.65-9.33-19.7-14.8-27-18-.29-7.59-.69-19.47-1-34-2.14-100.37,4.39-133.6,2-156-13.5-126.57-346.07-229.11-440-157-.06,.04-.78,.6-1.75,1.36,0,0-20.57,16.13-39.25,37.64-12.8,14.73-35.49,46.31-56,92-5.89,1.47-13.18,3.89-21,8-11.57,6.07-19.75,13.43-25,19-2.14,1.84-4.7,4.45-7,8-4.61,7.1-5.7,14.12-6,18-8.72,38.69-14.61,68.19-17,82-.54,3.12-1.55,9.31,0,17,1.75,8.65,5.91,15.07,9,19-2.39,11.19-5.55,27.74-8,48-5.17,42.77-7.65,65.43,2,91,4.2,11.12,11.52,29.75,31,43,20.77,14.13,42.84,13.61,51,13,7.8,20.45,17.61,35.35,25,45,12.49,16.3,23.21,30.3,42,35,12.24,3.06,23.18,.99,30-1,2.95,4.16,7.34,10.12,13,17,18.16,22.07,30.75,37.37,51,46,7.91,3.37,24.98,10.65,44,5,17.43-5.18,27.1-18.43,36-31,4.92-6.95,17.69-26.37,25-63,7.69-38.57,3.8-70.6-2.5-89.5-2.5-7.5-10-26-14-30,5,5,25.59,24.82,29.5,28.5,11.26,10.6,19.89,13.58,41,28,3.99,2.73,11.12,3.94,14,10,2.29,4.83,.06,7.55,2,12,3.83,8.78,17.94,10.5,22,11,14.86,1.82,26.65-4.19,32-7,4.68-2.46,30.11-15.84,34-42,.7-4.72,2.43-16.38-4-26-2.25-3.37-5.66-6.41-6.42-7.09-4.2-3.83-10.78-8.49-13.88-9.53-.16-.05-.72-.23-.7-.38,.05-.36,3.64-.44,6,0,4.94,.92,6.78,4.56,11,8,2.55,2.07,6.62,4.6,13,6Z"/>
    </g>
    <g id="_Слой_11" data-name="Слой 11">
      <polygon class="cls-6" points="961 971 1097 1107 1089 1149 962.5 1022.5 961 971"/>
      <polygon class="cls-6" points="1425 1115 1097 1107 1089 1149 1422 1149 1425 1115"/>
      <polygon class="cls-30" points="961 971 1319 978 1391.94 1114.19 1097 1107 961 971"/>
      <g>
        <line class="cls-2" x1="1060.5" y1="1069.5" x2="1112.5" y2="1069.5"/>
        <line class="cls-2" x1="1034.5" y1="1043.5" x2="1122.5" y2="1044.5"/>
        <line class="cls-2" x1="1010.5" y1="1020.5" x2="1131.5" y2="1023.5"/>
        <line class="cls-2" x1="985.5" y1="995.5" x2="1138.5" y2="1000.5"/>
        <line class="cls-2" x1="1069.77" y1="1021.52" x2="1113.77" y2="1065.52"/>
        <line class="cls-2" x1="1104.68" y1="994.84" x2="1129.5" y2="1022.5"/>
        <line class="cls-2" x1="1131.53" y1="974.01" x2="1144.5" y2="992.5"/>
      </g>
      <polygon class="cls-7" points="961 971 1319 978 1391.94 1114.19 1097 1107 961 971"/>
      <path class="cls-26" d="M1240,865c44.33,1.67,88.67,3.33,133,5s88.67,3.33,133,5c3.89-.23,13.24-.18,21,6,11.18,8.91,14.58,27,7,44-29,55.67-58,111.33-87,167-1.48,3.67-5.08,11.11-13,17-4.47,3.32-8.85,5.06-12,6l-324-9c18.83-48.86,39.74-98.95,63-150,13.35-29.31,13.5-28.5,21-45,2.99-6.58,4.82-12.67,10-20,3.79-5.36,11.57-16.07,26-22,8.35-3.43,16.17-4.13,22-4Z"/>
      <path class="cls-5" d="M775.5,465.5c-.85,4.03-1.66,9.95-1,17,.28,2.95,1.46,13.01,11,29,4.9,8.21,13.28,20.13,27,32"/>
      <g>
        <g>
          <circle class="cls-12" cx="1343.89" cy="996.33" r="54.48"/>
          <polyline class="cls-12" points="1349.13 1062.22 1335.85 1060.38 1337.23 1050.41"/>
        </g>
        <g>
          <circle class="cls-11" cx="1343.89" cy="996.33" r="39.4"/>
          <line class="cls-11" x1="1385.59" y1="1049.51" x2="1368.59" y2="1027.03"/>
          <line class="cls-11" x1="1354.16" y1="928.37" x2="1350.13" y2="957.44"/>
        </g>
        <g>
          <path class="cls-15" d="M1368.79,999.79c-1.91,13.76-14.61,23.36-28.36,21.45s-23.36-14.61-21.45-28.36c1.06-7.63,5.43-13.98,11.47-17.8,4.85-3.07,10.77-4.5,16.89-3.65,13.76,1.91,23.36,14.61,21.45,28.36Z"/>
          <line class="cls-15" x1="1304.07" y1="941.73" x2="1329.81" y2="975.77"/>
          <line class="cls-15" x1="1277.58" y1="986.29" x2="1319.09" y2="992.05"/>
          <line class="cls-15" x1="1290.94" y1="1036.38" x2="1323.86" y2="1011.48"/>
        </g>
      </g>
    </g>
    <g id="_Слой_7" data-name="Слой 7">
      <path class="cls-7" d="M848,581c-16.97,13.94-35.48,31.11-54,52,0,0-39.02,44.01-65,94-56.5,108.7-41.82,258.97-40,276"/>
      <path class="cls-28" d="M857,920c-8.17,7-10,18-28.11,38-24.51,27.06-40.85,49.58-45.89,82-1.95,12.54-4.27,32.56,12,52,10.86,12.96,34.76,35.88,35,36,2.32,1.28,6.44,3.91,9,6,4.89,4,8.32,7.08,9,8,8.31,11.16,28.84,11.25,43.39,7,8.65-2.53,13.65-7.72,23.3-18,7.54-8.03,17.05-19.83,25.42-36,2.3-5.5,4.59-11,6.89-16.5-2.61,2.89-7.76,7.78-15.89,11,0,0-12.23,4.84-26.48,2-23.48-4.68-36.34-31.59-41.31-42-24.7-51.71,8.68-123.1,16.68-140.5-3.35,1.83-19.65,9.17-23,11Z"/>
      <path class="cls-24" d="M949,716c44,12,80,24,124,36,5.56,.42,13.11,.67,22,0,17.16-1.29,28.01-.21,55-10,13.87-5.03,20.53-12.9,24-17,8.12-9.58,7.72-22.48,7-29l-87,3c-16.9-1.86-37.43-5.58-60-13-16.58-5.45-30.95-11.8-43-18-16.67,16-39,21-42,48Z"/>
      <path class="cls-28" d="M693.5,865.5c-2.48,13.13-6.36,38.9-2.5,62.5,.87,5.3,2.33,11.73,7,18,1.53,2.06,9.52,12.3,23,14,11.68,1.47,21.34-4.24,26-7,5.7-3.37,6.09-5.17,11-7,9.45-3.52,18.52-.75,21,0,12.43,3.78,19.11,14.77,25,24,2.33,3.65,3.96,6.83,5,9-6.94,7.2-16.27,18.74-23,35-12.1,29.25-8.31,55.76-6,67-13.58-1.1-31.16-5.13-47-17-10.38-7.78-16.76-16.48-23-25-3.83-5.23-12.5-17.23-19-34-2.44-6.31-8.17-22.57-9-53-.53-19.52,.82-49.77,11.5-86.5Z"/>
      <path class="cls-7" d="M606,796c7.09,7.56,30.02,33.37,55,40,13.13,3.48,24.7,3.63,33,3"/>
      <path class="cls-18" d="M845,850c-14.4,2.77-33.08,4.55-61-1-15.05-2.99-80.5-16-91-59-7.38-30.21,14.17-67.77,31-68,9.38-.13,9.99,11.45,28,28,32.66,30.02,59.02,35.29,64,36"/>
      <path class="cls-28" d="M698,750c5.22,1.17,16.28,19.33,28,36,2.84,4.04,10.38,14.46,24,19,15.29,5.1,29.35-.18,34-2,17.19-6.73,23.92-17.24,32-17,4.26,.13,6.97,14.69,13,34,7.39,23.66,61.34,79.85,59,83-3.44,4.62-17.16,15.46-23,6-21-34-52-38-68-57-9.91-11.76-42.97-11.78-68-22-21.68-8.85-23.14-11.72-28-20-11.32-19.29-11.85-61.98-3-60Z"/>
      <path class="cls-7" d="M806,704c-.98,22.08,.12,62.46,19,108,18.03,43.5,50.62,78.51,66.5,93.5"/>
      <path class="cls-7" d="M757,883c5.24-3.29,13.36-7.55,24-10,8.73-2.01,28.66-4.99,50,5,25.62,12,33.71,29.48,36,35"/>
      <path class="cls-7" d="M845,850s-22-31-29-64"/>
      <path class="cls-7" d="M631.41,665.45s43.27,12.46,98.93,59.01"/>
      <line class="cls-7" x1="680.5" y1="636.5" x2="752.3" y2="687.93"/>
      <path class="cls-7" d="M785.5,1079.5c-2.89-10.35-3.39-28.13-.5-47.5,5.97-39.99,32.73-64.1,41-71"/>
      <path class="cls-7" d="M785,1078c-3.72-3.83-11.5-12.87-15-27-3.66-14.79-.6-26.92,1-32"/>
      <path class="cls-18" d="M994,830c-8.14,1.63-17.5,4.6-27,10-37.26,21.19-46.94,62.93-49,73,33,36,39,45,60,59,4.61,3.07,16,10,33,21,3.6,2.33,12,6,12,9,0,13,5,18,15,21,12.76,3.83,20.06,3.21,27,1,22-7,33.49-17.73,41-29,8-12,7.98-21.11,8-30,.03-20.03-22.02-30.27-25-32,2.44-.02,10.05-2.39,15-5,2.31-1.22,7.13-3.77,9-8,3.98-9.02-6.17-24.22-19-30-8.68-3.91-17.02-2.82-21-2-9.54-6.35-19.21-13.01-29-20-17.76-12.69-34.42-25.41-50-38Z"/>
      <path class="cls-28" d="M764,762c7.02-14.2,32.06-63.65,52-78,3.55-2.56,12.6-9.1,18-6,3.05,1.75,3.78,5.83,4,7,3.86,20.51,36.51,96.01,43,110,2.25,4.86,24.8,52.11,69,80,20.95,13.22,40.49,28.71,62,41,6.09,3.48,12.27,6.83,18,14,8.13,10.18,1.55,18.54,9,43,4.49,14.75,10.59,18.92,14,22,8.84,7.96,38,5.53,52,0-2.37,3.97-8.2,11.5-14,17-3.01,2.85-34.59,23.57-51,14-24-14-13.69-24.68-21-29-22-13-34.53-21.26-55-39-15-13-32-30-45-43-8.89-8.89-13.72-3.95-28-10-5.8-2.46-12.04-10.28-28-27-7.91-8.29-13.44-20.99-25-36-6.56-10.45-11.03-21.82-13-29-4.9-17.87-5-22-18-29-4.75-2.56-4.71-4.45-18-9-11.72-4.01-18.96-10.12-25-13Z"/>
      <path class="cls-7" d="M994,830c-8.14,1.63-17.5,4.6-27,10-37.26,21.19-46.94,62.93-49,73,33,36,39,45,60,59,4.61,3.07,16,10,33,21,3.6,2.33,12,6,12,9,0,13,5,18,15,21,12.76,3.83,20.06,3.21,27,1,22-7,33.49-17.73,41-29,8-12,7.98-21.11,8-30,.03-20.03-22.02-30.27-25-32,2.44-.02,10.05-2.39,15-5,2.31-1.22,7.13-3.77,9-8,3.98-9.02-6.17-24.22-19-30-8.68-3.91-17.02-2.82-21-2-9.54-6.35-19.21-13.01-29-20-17.76-12.69-34.42-25.41-50-38Z"/>
      <path class="cls-7" d="M845,850c-14.4,2.77-33.08,4.55-61-1-15.05-2.99-80.5-16-91-59-7.38-30.21,14.17-67.77,31-68,9.38-.13,9.99,11.45,28,28,32.66,30.02,59.02,35.29,64,36"/>
      <path class="cls-7" d="M951,708c1.37,20.06,5.75,48.17,19,79,7.44,17.3,16.02,31.62,24,43"/>
      <path class="cls-7" d="M952,721c49.75,11.78,102.1,24.43,153,38,12.39,3.3,24.72,6.64,37,10,4.29,1.11,13.85,4.21,22,13,12.28,13.26,12.12,29.48,12,33-17.18-5.07-34.51-10.07-52-15-55.59-15.68-110.28-29.97-164-43"/>
      <path class="cls-7" d="M1171,724c1.07,3.99,2.29,11.04,0,19-5.53,19.2-26.23,25.49-28,26"/>
      <path class="cls-7" d="M1176,816c-2.53,6.94-5.2,13.94-8,21-13.73,34.59-29.04,66.23-45,95-5.33-2.33-9.67-3.67-15-6"/>
      <path class="cls-7" d="M1100,794c-.82,6.06-2.3,13.22-5,21-2.91,8.41-7.12,20.76-16,30-15.18,15.79-37.83,16.17-45,16"/>
      <path class="cls-7" d="M970,785c2.47-.43,5.9-.89,10-1,10.31-.27,25.23-.65,34,9,10,11,5.88,28.29,5,32-2.02,8.51-6.2,14.58-9,18"/>
      <path class="cls-7" d="M1221,854c-9.1,2.98-19.09,8.32-30,15-49,30-47.51,79.38-50,93"/>
      <circle class="cls-10" cx="994.5" cy="810.5" r="10"/>
    </g>
    <g id="_Слой_9" data-name="Слой 9">
      <ellipse class="cls-32" cx="1236.5" cy="679.5" rx="85.5" ry="76.5"/>
      <ellipse class="cls-24" cx="1236.5" cy="679.5" rx="85.5" ry="76.5"/>
      <ellipse class="cls-7" cx="1236.5" cy="679.5" rx="85.5" ry="76.5"/>
      <ellipse class="cls-18" cx="1234" cy="675" rx="43" ry="38"/>
      <ellipse class="cls-24" cx="1234" cy="675" rx="43" ry="38"/>
      <ellipse class="cls-13" cx="1234" cy="675" rx="43" ry="38"/>
    </g>
    <g id="_Слой_3" data-name="Слой 3">
      <path class="cls-9" d="M847,394c0,159.61,139.46,289,311.5,289,23.06,0,45.54-2.33,67.17-6.74,36.47-5.79,70.6-18.11,101-35.63-54.57,38.61-121.65,61.37-194.17,61.37-183.08,0-331.5-145.06-331.5-324S949.42,54,1132.5,54c159.37,0,292.48,109.93,324.28,256.44-38.63-118.87-157.56-205.44-298.28-205.44-172.04,0-311.5,129.39-311.5,289Z"/>
      <path class="cls-18" d="M1464,378c0,5.58-.14,11.12-.43,16.63-8.16-142.48-132.9-255.63-285.57-255.63s-286,121.11-286,270.5,128.05,270.5,286,270.5c16.24,0,32.17-1.28,47.67-3.74-21.63,4.41-44.11,6.74-67.17,6.74-172.04,0-311.5-129.39-311.5-289S986.46,105,1158.5,105c140.72,0,259.65,86.57,298.28,205.44,4.73,21.79,7.22,44.39,7.22,67.56Z"/>
      <path class="cls-7" d="M1464,378c0,5.58-.14,11.12-.43,16.63-8.16-142.48-132.9-255.63-285.57-255.63s-286,121.11-286,270.5,128.05,270.5,286,270.5c16.24,0,32.17-1.28,47.67-3.74-21.63,4.41-44.11,6.74-67.17,6.74-172.04,0-311.5-129.39-311.5-289S986.46,105,1158.5,105c140.72,0,259.65,86.57,298.28,205.44,4.73,21.79,7.22,44.39,7.22,67.56Z"/>
      <path class="cls-21" d="M1464,409.5c0,37.7-8.15,73.59-22.89,106.19-20.14,40.22-49.97,75.42-86.71,103.01-8.82,7.78-18.08,15.11-27.73,21.93-30.4,17.52-64.53,29.84-101,35.63-15.5,2.46-31.43,3.74-47.67,3.74-157.95,0-286-121.11-286-270.5s128.05-270.5,286-270.5,277.41,113.15,285.57,255.63c.01,.01,.01,.02,0,.04,.29,4.91,.43,9.85,.43,14.83Z"/>
      <ellipse class="cls-19" cx="1057.37" cy="233.65" rx="46.89" ry="37.57" transform="translate(78.6 696.94) rotate(-37.79)"/>
      <ellipse class="cls-19" cx="997.03" cy="287.45" rx="20.68" ry="16.57" transform="translate(249.57 1007.18) rotate(-60)"/>
      <path class="cls-23" d="M1006.94,466.9c-42.78-84.34-51.18-174.89-30.08-251.9-51.31,49.37-82.86,116.47-82.86,190.4,0,151.66,132.74,274.6,296.48,274.6,34.17,0,66.98-5.37,97.52-15.22-109.73-5.89-221-79.47-281.06-197.88Z"/>
      <path class="cls-7" d="M1464,409.5c0,37.7-8.15,73.59-22.89,106.19-20.14,40.22-49.97,75.42-86.71,103.01-8.82,7.78-18.08,15.11-27.73,21.93-30.4,17.52-64.53,29.84-101,35.63-15.5,2.46-31.43,3.74-47.67,3.74-157.95,0-286-121.11-286-270.5s128.05-270.5,286-270.5,277.41,113.15,285.57,255.63c.01,.01,.01,.02,0,.04,.29,4.91,.43,9.85,.43,14.83Z"/>
      <path class="cls-19" d="M1328.48,217.26c99.77,85.04,127.36,221.91,59.95,316.24-13.37,18.71-29.53,34.42-47.74,47.07,41.98-60.5,55.73-157.15,29.82-258.64-9.75-38.22-24.22-73.53-42.03-104.68Z"/>
      <path class="cls-29" d="M800.5,397.5c29.67-3.67,59.33-7.33,89-11,.47,19.09,2.74,44.3,10,73,.59,2.34,10.34,40.1,28,73,23.16,43.14,78.7,112.83,173,140,86.68,24.97,159.36,.55,184-9,4.64-1.8-29.02,18.41-58,27-55.6,16.47-130.64,17.96-191-1-138.46-43.49-196.77-165.81-206-186-19.4-42.46-26.26-80.86-29-106Z"/>
      <g>
        <path class="cls-20" d="M1039.59,349.01c-.1-.49,.25-.66,.58-.29,1.44,1.64,4.34,4.85,5.61,5.68s4.3,1.55,5.82,1.87c.35,.07,.65,.68,.5,1-.65,1.41-1.89,4.27-1.98,5.78s.76,5.75,1.22,7.89c.1,.49-.25,.66-.58,.29-1.44-1.64-4.34-4.85-5.61-5.68s-4.3-1.55-5.82-1.87c-.35-.07-.65-.68-.5-1,.65-1.41,1.89-4.27,1.98-5.78s-.76-5.75-1.22-7.89Z"/>
        <path class="cls-20" d="M1288.06,243.07c.27-.42,.64-.3,.61,.2-.14,2.18-.36,6.5-.06,7.98s1.95,4.13,2.8,5.43c.19,.3-.02,.94-.35,1.07-1.46,.54-4.36,1.68-5.49,2.69s-3.53,4.61-4.72,6.44c-.27,.42-.64,.3-.61-.2,.14-2.18,.36-6.5,.06-7.98s-1.95-4.13-2.8-5.43c-.19-.3,.02-.94,.35-1.07,1.46-.54,4.36-1.68,5.49-2.69s3.53-4.61,4.72-6.44Z"/>
        <path class="cls-20" d="M1099.48,539.49c.07-.27,.48-.39,.68-.2,.88,.82,2.66,2.41,3.64,2.79s3.77,.57,5.18,.65c.32,.02,.42,.34,.16,.53-1.14,.83-3.39,2.51-4,3.36s-1.24,3.16-1.54,4.32c-.07,.27-.48,.39-.68,.2-.88-.82-2.66-2.41-3.64-2.79s-3.77-.57-5.18-.65c-.32-.02-.42-.34-.16-.53,1.14-.83,3.39-2.51,4-3.36s1.24-3.16,1.54-4.32Z"/>
        <path class="cls-20" d="M965.73,470.57c-.16-.46,.11-.62,.44-.27,1.45,1.53,4.36,4.53,5.54,5.3s3.85,1.44,5.17,1.74c.3,.07,.65,.64,.57,.94-.35,1.31-.98,3.99-.84,5.4s1.47,5.37,2.16,7.36c.16,.46-.11,.62-.44,.27-1.45-1.53-4.36-4.53-5.54-5.3s-3.85-1.44-5.17-1.74c-.3-.07-.65-.64-.57-.94,.35-1.31,.98-3.99,.84-5.4s-1.47-5.37-2.16-7.36Z"/>
        <path class="cls-20" d="M1298.68,567.47c.31-.55,.71-.42,.65,.21-.26,2.75-.73,8.19-.48,10.02s1.88,5.04,2.72,6.6c.19,.36-.07,1.18-.44,1.36-1.59,.79-4.78,2.45-6.04,3.8-1.27,1.35-4.04,6.06-5.42,8.45-.31,.55-.71,.42-.65-.21,.26-2.75,.73-8.19,.48-10.02-.25-1.84-1.88-5.04-2.72-6.6-.19-.36,.07-1.18,.44-1.36,1.59-.79,4.78-2.45,6.04-3.8s4.04-6.06,5.42-8.45Z"/>
        <path class="cls-20" d="M1181.75,258.88c.09-.62,.5-.65,.68-.05,.77,2.65,2.34,7.88,3.24,9.5s3.6,3.99,4.96,5.14c.31,.26,.37,1.13,.1,1.43-1.19,1.32-3.54,4.04-4.22,5.76-.68,1.72-1.53,7.12-1.93,9.85-.09,.62-.5,.65-.68,.05-.77-2.65-2.34-7.88-3.24-9.5-.91-1.62-3.6-3.99-4.96-5.14-.31-.26-.37-1.13-.1-1.43,1.19-1.32,3.54-4.04,4.22-5.76s1.53-7.12,1.93-9.85Z"/>
        <path class="cls-20" d="M1175.49,483.8c-.17-.61,.2-.8,.6-.32,1.77,2.12,5.32,6.27,6.8,7.38s4.91,2.2,6.61,2.7c.39,.11,.79,.88,.67,1.27-.56,1.69-1.61,5.12-1.53,6.97,.07,1.85,1.48,7.13,2.21,9.79,.17,.61-.2,.8-.6,.32-1.77-2.12-5.32-6.27-6.8-7.38-1.48-1.11-4.91-2.2-6.61-2.7-.39-.11-.79-.88-.67-1.27,.56-1.69,1.61-5.12,1.53-6.97s-1.48-7.13-2.21-9.79Z"/>
        <path class="cls-20" d="M1069.46,433.87c.06-.24,.22-.23,.27,0,.19,1.06,.59,3.16,.88,3.83s1.24,1.7,1.72,2.2c.11,.11,.1,.45-.02,.56-.52,.46-1.54,1.43-1.88,2.07s-.88,2.71-1.15,3.75c-.06,.24-.22,.23-.27,0-.19-1.06-.59-3.16-.88-3.83s-1.24-1.7-1.72-2.2c-.11-.11-.1-.45,.02-.56,.52-.46,1.54-1.43,1.88-2.07s.88-2.71,1.15-3.75Z"/>
        <path class="cls-20" d="M1314.88,318.39c-.04-.24,.11-.3,.25-.1,.61,.89,1.84,2.64,2.38,3.12s1.83,1.04,2.48,1.29c.15,.06,.28,.37,.21,.52-.28,.64-.81,1.94-.85,2.66s.32,2.83,.51,3.89c.04,.24-.11,.3-.25,.1-.61-.89-1.84-2.64-2.38-3.12s-1.83-1.04-2.48-1.29c-.15-.06-.28-.37-.21-.52,.28-.64,.81-1.94,.85-2.66s-.32-2.83-.51-3.89Z"/>
        <path class="cls-20" d="M1268.9,374.64c.08-.49,.47-.53,.64-.06,.76,2.05,2.32,6.08,3.2,7.31s3.46,2.98,4.77,3.82c.3,.19,.37,.87,.11,1.12-1.11,1.08-3.29,3.31-3.91,4.69s-1.35,5.65-1.69,7.8c-.08,.49-.47,.53-.64,.06-.76-2.05-2.32-6.08-3.2-7.31s-3.46-2.98-4.77-3.82c-.3-.19-.37-.87-.11-1.12,1.11-1.08,3.29-3.31,3.91-4.69s1.35-5.65,1.69-7.8Z"/>
        <path class="cls-20" d="M1343.12,438.66c.23-.28,.59-.15,.59,.21,0,1.58,.07,4.71,.45,5.83s2.1,3.23,2.99,4.27c.2,.24,.04,.69-.27,.74-1.35,.24-4.02,.76-5.03,1.38s-3.05,2.99-4.07,4.2c-.23,.28-.59,.15-.59-.21,0-1.58-.07-4.71-.45-5.83s-2.1-3.23-2.99-4.27c-.2-.24-.04-.69,.27-.74,1.35-.24,4.02-.76,5.03-1.38s3.05-2.99,4.07-4.2Z"/>
        <path class="cls-20" d="M1157.63,377.46c-.42-.01-.56-.44-.24-.71,1.42-1.16,4.19-3.5,4.91-4.67s1.37-4.32,1.66-5.9c.07-.36,.59-.54,.86-.29,1.19,1.08,3.61,3.2,4.9,3.68s4.91,.67,6.74,.73c.42,.01,.56,.44,.24,.71-1.42,1.16-4.19,3.5-4.91,4.67s-1.37,4.32-1.66,5.9c-.07,.36-.59,.54-.86,.29-1.19-1.08-3.61-3.2-4.9-3.68s-4.91-.67-6.74-.73Z"/>
      </g>
    </g>
    <g id="_Слой_4" data-name="Слой 4">
      <ellipse class="cls-18" cx="842.58" cy="298.81" rx="118.22" ry="89.25" transform="translate(225.18 945.38) rotate(-65.85)"/>
      <g id="_Слой_12" data-name="Слой 12">
        <path class="cls-28" d="M868.96,333.85c.04-.07,.07-.13,.1-.2,1.87-3.91,3.51-7.86,4.94-11.83-3.57,3.29-7.28,6.2-11.09,8.72-18.92,12.52-40.2,15.25-57.74,5.1-6.88-3.99-12.6-9.62-17.07-16.46-13.54-20.68-15.77-52.37-4.84-82.84-9.45,8.71-17.88,20.03-24.35,33.49-17.58,36.53-15.19,77.24,3.8,99.94,2.06,5.46,4.84,10.81,8.29,16.23,6.01,9.45,27.48,18.35,36.47,23.09,30.27,15.98,78.55-11,106.53-62.09-14.33-.79-30.94-6-45.04-13.15Z"/>
      </g>
      <ellipse class="cls-13" cx="842.58" cy="298.81" rx="118.22" ry="89.25" transform="translate(225.18 945.38) rotate(-65.85)"/>
      <path class="cls-13" d="M879.96,316.69c-18.57,48.19-60.94,76.72-94.64,63.74-22.23-8.57-35.13-33.08-35.99-62.6,.01-14.05,2.24-28.75,6.9-43.42,.53-1.58,1.11-3.17,1.72-4.75,18.58-48.19,60.95-76.73,94.64-63.74,33.7,12.98,45.95,62.58,27.37,110.77Z"/>
      <path class="cls-13" d="M756.23,274.41c-4.66,14.67-6.89,29.37-6.9,43.42-.4-13.76,1.8-28.59,6.9-43.42Z"/>
    </g>
    <g id="_Слой_5" data-name="Слой 5">
      <circle class="cls-32" cx="950.5" cy="610.5" r="91.5"/>
      <path class="cls-25" d="M952.35,619.59c-34.39-14.43-55.33-47.42-56.09-82.45-12.84,9.47-23.37,22.41-29.99,38.19-19.55,46.6,2.37,100.22,48.96,119.78s100.22-2.37,119.78-48.96c5.12-12.21,7.39-24.9,7.13-37.33-25.08,18.49-58.97,23.71-89.79,10.78Z"/>
      <g class="cls-27">
        <path class="cls-18" d="M900.5,539.5c3.31-1.27,6.03-3.53,9.07-5.31,3.02-1.88,6.19-3.62,9.52-5.1,10-4.57,21.44-6.39,32.49-5.87,11.12,.49,21.99,3.3,32.4,7.03,21.09,7.22,40.45,23.18,47.97,44.62,2.55,6.97,3.51,14.27,3.56,21.63-2.13-3.02-3.81-6.16-5.69-9.07-13-21.32-32.86-36.51-55.68-46.44-16.72-7.05-35.37-10.78-53.35-6.77-3.32,.71-6.63,1.62-9.96,2.67-3.37,.97-6.76,2.44-10.31,2.61h0Z"/>
      </g>
      <circle class="cls-7" cx="948.5" cy="611.5" r="91.5"/>
      <circle class="cls-18" cx="948.5" cy="611.5" r="51.5"/>
      <circle class="cls-28" cx="948.5" cy="611.5" r="51.5"/>
      <circle class="cls-7" cx="948.5" cy="611.5" r="51.5"/>
      <path class="cls-4" d="M810.5,450.5c-4.24-1.56-18.14-6.67-28,0-1.33,.9-2.21,1.76-2.7,2.24-9.48,9.37-7.72,26.64-7.3,30.76,1.29,12.67,9.58,30.41,43,63,34.99,34.12,65.41,52.84,74,58,7.17,4.31,24,19.32,49,25,13.81,3.14,20.48,1.56,25-2,6.37-5.02,9.12-14.5,7-22-2.31-8.18-9.8-11.83-21-18-20.47-11.28-42.89-23.78-59-40-3.65-3.67-8.1-9.78-17-22-36.31-49.85-41.71-67.18-63-75Z"/>
      <path class="cls-8" d="M793.5,447.5c24,13,38,32,48,46,9.23,12.92,15.64,24.08,27.5,38.5,7.2,8.76,15.43,17.46,22,24,27.19,27.05,55.23,40.32,72.5,48.5"/>
      <path class="cls-7" d="M810.5,450.5c-4.24-1.56-18.14-6.67-28,0-1.33,.9-2.21,1.76-2.7,2.24-9.48,9.37-7.72,26.64-7.3,30.76,1.29,12.67,9.58,30.41,43,63,34.99,34.12,65.41,52.84,74,58,7.17,4.31,24,19.32,49,25,13.81,3.14,20.48,1.56,25-2,6.37-5.02,9.12-14.5,7-22-2.31-8.18-9.8-11.83-21-18-20.47-11.28-42.89-23.78-59-40-3.65-3.67-8.1-9.78-17-22-36.31-49.85-41.71-67.18-63-75Z"/>
      <line class="cls-7" x1="842.54" y1="935.4" x2="947" y2="952.9"/>
      <line class="cls-7" x1="825.54" y1="973.4" x2="958" y2="997"/>
      <line class="cls-7" x1="814" y1="1014" x2="955" y2="1042"/>
      <line class="cls-7" x1="811.54" y1="1060.4" x2="945" y2="1089"/>
      <line class="cls-7" x1="823" y1="1109" x2="923" y2="1128"/>
    </g>
    <path class="cls-17" d="M1532.5,886.5c-32-187-36-374-68-561,0,0-272-214.44-570.5,236.78-93.5,122.22-81.5,184.22-81.5,184.22,0,0,3.5,81.5,81.5,155.5,3.07,2.34,18.71,3.69,22,6,46.61,53.64,182.5,198.5,182.5,198.5,0,0,58-140,94-215,3.98-8.28,16.78-14.3,22-20,46.74-11.09,227,5,300,4,18.24,1.86,18,11,18,11Z"/>
    <path class="cls-7" d="M1240,865c44.33,1.67,88.67,3.33,133,5s88.67,3.33,133,5c3.89-.23,13.24-.18,21,6,11.18,8.91,14.58,27,7,44-29,55.67-58,111.33-87,167-1.48,3.67-5.08,11.11-13,17-4.47,3.32-8.85,5.06-12,6l-324-9c18.83-48.86,39.74-98.95,63-150,13.35-29.31,13.5-28.5,21-45,2.99-6.58,4.82-12.67,10-20,3.79-5.36,11.57-16.07,26-22,8.35-3.43,16.17-4.13,22-4Z"/>
    <ellipse class="cls-7" cx="884.5" cy="1029.62" rx="123.34" ry="73.87" transform="translate(-223.3 1813.98) rotate(-84.64)"/>
  </g>
</svg>